<svg viewBox="0 0 1200 800" xmlns="http://www.w3.org/2000/svg">
  <!-- Title -->
  <text x="600" y="30" text-anchor="middle" font-size="24" font-weight="bold" fill="#333">
    Module 12: Cloud-Native Architecture
  </text>
  
  <!-- Legend -->
  <g id="legend" transform="translate(20, 40)">
    <rect x="0" y="0" width="200" height="120" fill="#f0f0f0" stroke="#ccc" rx="5"/>
    <text x="10" y="20" font-size="14" font-weight="bold">Legend</text>
    <rect x="10" y="30" width="20" height="15" fill="#4A90E2"/>
    <text x="35" y="42" font-size="12">Azure Services</text>
    <rect x="10" y="50" width="20" height="15" fill="#50C878"/>
    <text x="35" y="62" font-size="12">Kubernetes/Containers</text>
    <rect x="10" y="70" width="20" height="15" fill="#FFB84D"/>
    <text x="35" y="82" font-size="12">Serverless Functions</text>
    <rect x="10" y="90" width="20" height="15" fill="#E74C3C"/>
    <text x="35" y="102" font-size="12">Event/Messaging</text>
  </g>
  
  <!-- External Users -->
  <g id="users" transform="translate(50, 200)">
    <rect x="0" y="0" width="100" height="60" fill="#f0f0f0" stroke="#333" rx="5"/>
    <text x="50" y="35" text-anchor="middle" font-size="14">Users</text>
  </g>
  
  <!-- Azure Front Door -->
  <g id="frontdoor" transform="translate(200, 180)">
    <rect x="0" y="0" width="120" height="100" fill="#4A90E2" stroke="#333" rx="5"/>
    <text x="60" y="30" text-anchor="middle" font-size="12" fill="white">Azure</text>
    <text x="60" y="50" text-anchor="middle" font-size="12" fill="white">Front Door</text>
    <text x="60" y="70" text-anchor="middle" font-size="10" fill="white">CDN + WAF</text>
  </g>
  
  <!-- AKS Cluster -->
  <g id="aks-cluster" transform="translate(380, 100)">
    <rect x="0" y="0" width="400" height="280" fill="#50C878" fill-opacity="0.2" stroke="#50C878" stroke-width="2" rx="10" stroke-dasharray="5,5"/>
    <text x="200" y="20" text-anchor="middle" font-size="16" font-weight="bold">Azure Kubernetes Service (AKS)</text>
    
    <!-- Ingress -->
    <rect x="20" y="40" width="100" height="50" fill="#50C878" stroke="#333" rx="5"/>
    <text x="70" y="60" text-anchor="middle" font-size="11" fill="white">NGINX</text>
    <text x="70" y="75" text-anchor="middle" font-size="11" fill="white">Ingress</text>
    
    <!-- Product Service Pods -->
    <g transform="translate(150, 40)">
      <rect x="0" y="0" width="80" height="50" fill="#50C878" stroke="#333" rx="5"/>
      <text x="40" y="25" text-anchor="middle" font-size="10" fill="white">Product</text>
      <text x="40" y="40" text-anchor="middle" font-size="10" fill="white">Service (3)</text>
    </g>
    
    <!-- PostgreSQL -->
    <rect x="20" y="120" width="100" height="60" fill="#4A90E2" stroke="#333" rx="5"/>
    <text x="70" y="145" text-anchor="middle" font-size="11" fill="white">PostgreSQL</text>
    <text x="70" y="160" text-anchor="middle" font-size="10" fill="white">(StatefulSet)</text>
    
    <!-- Redis -->
    <rect x="150" y="120" width="80" height="60" fill="#4A90E2" stroke="#333" rx="5"/>
    <text x="190" y="145" text-anchor="middle" font-size="11" fill="white">Redis</text>
    <text x="190" y="160" text-anchor="middle" font-size="10" fill="white">Cache</text>
    
    <!-- Monitoring Stack -->
    <g transform="translate(260, 40)">
      <rect x="0" y="0" width="120" height="140" fill="#9B59B6" fill-opacity="0.3" stroke="#9B59B6" rx="5"/>
      <text x="60" y="20" text-anchor="middle" font-size="12">Monitoring</text>
      
      <rect x="10" y="30" width="100" height="40" fill="#9B59B6" stroke="#333" rx="3"/>
      <text x="60" y="55" text-anchor="middle" font-size="10" fill="white">Prometheus</text>
      
      <rect x="10" y="80" width="100" height="40" fill="#9B59B6" stroke="#333" rx="3"/>
      <text x="60" y="105" text-anchor="middle" font-size="10" fill="white">Grafana</text>
    </g>
    
    <!-- HPA indicator -->
    <text x="200" y="250" text-anchor="middle" font-size="10" fill="#666">Auto-scaling: 3-10 pods</text>
  </g>
  
  <!-- Event Grid -->
  <g id="eventgrid" transform="translate(380, 420)">
    <rect x="0" y="0" width="140" height="80" fill="#E74C3C" stroke="#333" rx="5"/>
    <text x="70" y="30" text-anchor="middle" font-size="12" fill="white">Azure</text>
    <text x="70" y="50" text-anchor="middle" font-size="12" fill="white">Event Grid</text>
    <text x="70" y="65" text-anchor="middle" font-size="10" fill="white">Topic</text>
  </g>
  
  <!-- Service Bus -->
  <g id="servicebus" transform="translate(550, 420)">
    <rect x="0" y="0" width="140" height="80" fill="#E74C3C" stroke="#333" rx="5"/>
    <text x="70" y="30" text-anchor="middle" font-size="12" fill="white">Azure</text>
    <text x="70" y="50" text-anchor="middle" font-size="12" fill="white">Service Bus</text>
    <text x="70" y="65" text-anchor="middle" font-size="10" fill="white">Queues</text>
  </g>
  
  <!-- Event Hub -->
  <g id="eventhub" transform="translate(720, 420)">
    <rect x="0" y="0" width="140" height="80" fill="#E74C3C" stroke="#333" rx="5"/>
    <text x="70" y="30" text-anchor="middle" font-size="12" fill="white">Azure</text>
    <text x="70" y="50" text-anchor="middle" font-size="12" fill="white">Event Hub</text>
    <text x="70" y="65" text-anchor="middle" font-size="10" fill="white">Analytics</text>
  </g>
  
  <!-- Azure Functions -->
  <g id="functions" transform="translate(380, 550)">
    <rect x="0" y="0" width="480" height="180" fill="#FFB84D" fill-opacity="0.2" stroke="#FFB84D" stroke-width="2" rx="10" stroke-dasharray="5,5"/>
    <text x="240" y="20" text-anchor="middle" font-size="16" font-weight="bold">Azure Functions</text>
    
    <!-- Order Processor -->
    <rect x="20" y="40" width="120" height="60" fill="#FFB84D" stroke="#333" rx="5"/>
    <text x="80" y="65" text-anchor="middle" font-size="11">Order</text>
    <text x="80" y="80" text-anchor="middle" font-size="11">Processor</text>
    
    <!-- Fulfillment Orchestrator -->
    <rect x="160" y="40" width="120" height="60" fill="#FFB84D" stroke="#333" rx="5"/>
    <text x="220" y="65" text-anchor="middle" font-size="11">Fulfillment</text>
    <text x="220" y="80" text-anchor="middle" font-size="11">Orchestrator</text>
    
    <!-- Analytics Processor -->
    <rect x="300" y="40" width="120" height="60" fill="#FFB84D" stroke="#333" rx="5"/>
    <text x="360" y="65" text-anchor="middle" font-size="11">Analytics</text>
    <text x="360" y="80" text-anchor="middle" font-size="11">Processor</text>
    
    <!-- Durable Functions indicator -->
    <text x="240" y="130" text-anchor="middle" font-size="10" fill="#666">Durable Functions for Orchestration</text>
  </g>
  
  <!-- Data Storage -->
  <g id="storage" transform="translate(920, 100)">
    <!-- Cosmos DB -->
    <rect x="0" y="0" width="140" height="80" fill="#4A90E2" stroke="#333" rx="5"/>
    <text x="70" y="30" text-anchor="middle" font-size="12" fill="white">Azure</text>
    <text x="70" y="50" text-anchor="middle" font-size="12" fill="white">Cosmos DB</text>
    <text x="70" y="65" text-anchor="middle" font-size="10" fill="white">Orders</text>
    
    <!-- Blob Storage -->
    <rect x="0" y="100" width="140" height="80" fill="#4A90E2" stroke="#333" rx="5"/>
    <text x="70" y="130" text-anchor="middle" font-size="12" fill="white">Azure</text>
    <text x="70" y="150" text-anchor="middle" font-size="12" fill="white">Blob Storage</text>
    <text x="70" y="165" text-anchor="middle" font-size="10" fill="white">Documents</text>
    
    <!-- Azure Data Explorer -->
    <rect x="0" y="200" width="140" height="80" fill="#4A90E2" stroke="#333" rx="5"/>
    <text x="70" y="230" text-anchor="middle" font-size="12" fill="white">Azure</text>
    <text x="70" y="250" text-anchor="middle" font-size="12" fill="white">Data Explorer</text>
    <text x="70" y="265" text-anchor="middle" font-size="10" fill="white">Analytics</text>
  </g>
  
  <!-- Container Registry -->
  <g id="acr" transform="translate(920, 320)">
    <rect x="0" y="0" width="140" height="80" fill="#4A90E2" stroke="#333" rx="5"/>
    <text x="70" y="30" text-anchor="middle" font-size="12" fill="white">Azure</text>
    <text x="70" y="50" text-anchor="middle" font-size="12" fill="white">Container</text>
    <text x="70" y="65" text-anchor="middle" font-size="12" fill="white">Registry</text>
  </g>
  
  <!-- Application Insights -->
  <g id="appinsights" transform="translate(920, 420)">
    <rect x="0" y="0" width="140" height="80" fill="#4A90E2" stroke="#333" rx="5"/>
    <text x="70" y="30" text-anchor="middle" font-size="12" fill="white">Application</text>
    <text x="70" y="50" text-anchor="middle" font-size="12" fill="white">Insights</text>
    <text x="70" y="65" text-anchor="middle" font-size="10" fill="white">Monitoring</text>
  </g>
  
  <!-- Key Vault -->
  <g id="keyvault" transform="translate(920, 520)">
    <rect x="0" y="0" width="140" height="80" fill="#4A90E2" stroke="#333" rx="5"/>
    <text x="70" y="30" text-anchor="middle" font-size="12" fill="white">Azure</text>
    <text x="70" y="50" text-anchor="middle" font-size="12" fill="white">Key Vault</text>
    <text x="70" y="65" text-anchor="middle" font-size="10" fill="white">Secrets</text>
  </g>
  
  <!-- Connections -->
  <!-- User to Front Door -->
  <line x1="150" y1="230" x2="200" y2="230" stroke="#333" stroke-width="2" marker-end="url(#arrowhead)"/>
  
  <!-- Front Door to AKS -->
  <line x1="320" y1="230" x2="380" y2="230" stroke="#333" stroke-width="2" marker-end="url(#arrowhead)"/>
  
  <!-- AKS to Event Grid -->
  <line x1="580" y1="380" x2="450" y2="420" stroke="#E74C3C" stroke-width="2" marker-end="url(#arrowhead)"/>
  
  <!-- Event Grid to Functions -->
  <line x1="450" y1="500" x2="450" y2="550" stroke="#E74C3C" stroke-width="2" marker-end="url(#arrowhead)"/>
  
  <!-- Service Bus to Functions -->
  <line x1="620" y1="500" x2="620" y2="550" stroke="#E74C3C" stroke-width="2" marker-end="url(#arrowhead)"/>
  
  <!-- Event Hub to Functions -->
  <line x1="790" y1="500" x2="790" y2="550" stroke="#E74C3C" stroke-width="2" marker-end="url(#arrowhead)"/>
  
  <!-- Functions to Cosmos DB -->
  <path d="M 860 600 Q 900 600 920 140" fill="none" stroke="#333" stroke-width="2" marker-end="url(#arrowhead)"/>
  
  <!-- AKS to ACR -->
  <path d="M 780 240 Q 850 240 920 360" fill="none" stroke="#333" stroke-width="2" marker-end="url(#arrowhead)"/>
  
  <!-- Arrow marker definition -->
  <defs>
    <marker id="arrowhead" markerWidth="10" markerHeight="7" refX="9" refY="3.5" orient="auto">
      <polygon points="0 0, 10 3.5, 0 7" fill="#333"/>
    </marker>
  </defs>
  
  <!-- Labels for data flow -->
  <text x="350" y="410" font-size="10" fill="#666">Events</text>
  <text x="890" y="400" font-size="10" fill="#666" transform="rotate(-45 890 400)">Telemetry</text>
  <text x="850" y="300" font-size="10" fill="#666" transform="rotate(-45 850 300)">Pull Images</text>
  
  <!-- Exercise indicators -->
  <g transform="translate(50, 650)">
    <text x="0" y="0" font-size="14" font-weight="bold" fill="#333">Exercises:</text>
    <circle cx="20" cy="20" r="8" fill="#50C878"/>
    <text x="35" y="25" font-size="12">Exercise 1: Containerization (Green)</text>
    <circle cx="20" cy="45" r="8" fill="#4A90E2"/>
    <text x="35" y="50" font-size="12">Exercise 2: AKS Deployment (Blue)</text>
    <circle cx="20" cy="70" r="8" fill="#FFB84D"/>
    <text x="35" y="75" font-size="12">Exercise 3: Serverless Events (Orange)</text>
  </g>
  
  <!-- Architecture patterns -->
  <g transform="translate(450, 750)">
    <text x="0" y="0" font-size="12" font-style="italic" fill="#666">Patterns: Microservices • Event-Driven • Serverless • Cloud-Native • DevOps</text>
  </g>
</svg>